<svg xmlns="http://www.w3.org/2000/svg" viewBox="0 0 1600 120" preserveAspectRatio="none"><polyline points="0.0,47.3 1.8,46.1 3.6,45.8 5.3,44.2 7.1,44.0 8.9,43.5 10.7,41.9 12.5,41.4 14.2,40.8 16.0,40.7 17.8,41.3 19.6,40.7 21.4,40.8 23.1,39.6 24.9,41.3 26.7,39.8 28.5,41.4 30.3,41.4 32.0,41.2 33.8,41.6 35.6,42.4 37.4,42.9 39.2,43.5 40.9,44.1 42.7,45.5 44.5,45.8 46.3,46.7 48.1,46.5 49.8,47.3 51.6,47.7 53.4,48.0 55.2,47.3 57.0,48.4 58.7,47.4 60.5,47.3 62.3,48.0 64.1,46.8 65.9,47.1 67.6,45.9 69.4,46.0 71.2,44.9 73.0,43.8 74.7,43.1 76.5,41.3 78.3,40.6 80.1,40.8 81.9,38.6 83.6,38.7 85.4,37.5 87.2,36.0 89.0,35.3 90.8,33.8 92.5,31.9 94.3,31.7 96.1,31.8 97.9,30.5 99.7,32.2 101.4,30.3 103.2,29.4 105.0,29.6 106.8,31.0 108.6,31.0 110.3,32.0 112.1,32.3 113.9,31.3 115.7,34.4 117.5,33.1 119.2,35.5 121.0,35.4 122.8,36.3 124.6,38.3 126.4,38.1 128.1,39.9 129.9,38.9 131.7,39.8 133.5,41.3 135.3,41.7 137.0,42.4 138.8,43.9 140.6,44.5 142.4,44.3 144.2,44.5 145.9,44.5 147.7,44.2 149.5,43.9 151.3,44.1 153.1,44.7 154.8,43.8 156.6,42.8 158.4,41.8 160.2,42.9 162.0,40.9 163.7,40.7 165.5,40.3 167.3,38.4 169.1,39.0 170.9,38.4 172.6,37.0 174.4,36.0 176.2,36.6 178.0,35.0 179.8,35.1 181.5,33.2 183.3,34.7 185.1,32.0 186.9,32.7 188.7,33.2 190.4,32.6 192.2,31.3 194.0,31.8 195.8,33.0 197.6,32.9 199.3,33.3 201.1,32.1 202.9,31.9 204.7,33.9 206.5,32.1 208.2,33.3 210.0,33.0 211.8,35.2 213.6,35.8 215.4,35.4 217.1,35.2 218.9,37.0 220.7,37.7 222.5,38.0 224.2,39.9 226.0,40.2 227.8,40.4 229.6,40.2 231.4,41.5 233.1,41.7 234.9,42.8 236.7,43.1 238.5,43.7 240.3,45.1 242.0,44.6 243.8,45.4 245.6,45.4 247.4,46.2 249.2,47.0 250.9,47.3 252.7,46.9 254.5,47.0 256.3,47.1 258.1,48.0 259.8,48.3 261.6,48.2 263.4,47.3 265.2,47.7 267.0,48.3 268.7,47.4 270.5,47.5 272.3,47.1 274.1,47.7 275.9,46.6 277.6,47.1 279.4,46.5 281.2,47.1 283.0,45.7 284.8,45.3 286.5,45.7 288.3,45.3 290.1,45.8 291.9,44.6 293.7,44.3 295.4,43.7 297.2,43.5 299.0,44.1 300.8,42.9 302.6,42.9 304.3,43.5 306.1,43.3 307.9,42.9 309.7,42.7 311.5,41.6 313.2,41.5 315.0,40.9 316.8,41.1 318.6,40.8 320.4,40.6 322.1,41.5 323.9,40.5 325.7,40.3 327.5,40.8 329.3,40.8 331.0,39.2 332.8,40.2 334.6,41.0 336.4,40.8 338.2,39.9 339.9,39.2 341.7,40.8 343.5,39.9 345.3,40.2 347.1,40.5 348.8,40.8 350.6,41.3 352.4,41.3 354.2,41.7 356.0,40.6 357.7,41.3 359.5,40.7 361.3,41.2 363.1,42.2 364.8,41.4 366.6,42.0 368.4,42.4 370.2,42.8 372.0,43.7 373.7,42.9 375.5,44.0 377.3,44.8 379.1,44.7 380.9,44.3 382.6,44.5 384.4,45.6 386.2,46.2 388.0,46.0 389.8,46.0 391.5,47.4 393.3,46.9 395.1,47.0 396.9,47.6 398.7,47.6 400.4,48.3 402.2,48.8 404.0,48.4 405.8,48.9 407.6,49.9 409.3,50.3 411.1,49.9 412.9,50.2 414.7,50.8 416.5,51.3 418.2,50.8 420.0,51.4 421.8,51.3 423.6,51.6 425.4,51.8 427.1,51.6 428.9,51.9 430.7,52.2 432.5,52.4 434.3,52.3 436.0,52.5 437.8,53.0 439.6,52.6 441.4,53.2 443.2,52.7 444.9,53.0 446.7,53.3 448.5,53.2 450.3,53.2 452.1,53.0 453.8,53.3 455.6,53.2 457.4,53.1 459.2,52.6 461.0,52.7 462.7,52.7 464.5,52.9 466.3,52.4 468.1,52.2 469.9,52.2 471.6,52.2 473.4,52.5 475.2,51.6 477.0,51.8 478.8,51.3 480.5,51.6 482.3,51.3 484.1,51.1 485.9,51.6 487.7,51.5 489.4,51.3 491.2,50.8 493.0,50.9 494.8,50.8 496.6,50.1 498.3,50.4 500.1,50.2 501.9,50.2 503.7,50.6 505.5,49.9 507.2,50.6 509.0,49.9 510.8,49.8 512.6,50.3 514.3,50.1 516.1,50.0 517.9,50.1 519.7,50.7 521.5,50.5 523.2,50.1 525.0,50.3 526.8,51.0 528.6,50.8 530.4,51.1 532.1,51.5 533.9,51.8 535.7,51.9 537.5,51.7 539.3,52.0 541.0,52.2 542.8,52.7 544.6,52.9 546.4,53.0 548.2,53.1 549.9,53.8 551.7,53.8 553.5,53.9 555.3,54.4 557.1,54.4 558.8,54.6 560.6,53.8 562.4,54.0 564.2,54.1 566.0,54.0 567.7,54.3 569.5,54.6 571.3,54.9 573.1,54.7 574.9,54.9 576.6,55.3 578.4,55.3 580.2,55.5 582.0,55.3 583.8,55.5 585.5,55.6 587.3,55.6 589.1,55.6 590.9,55.1 592.7,55.0 594.4,54.9 596.2,55.0 598.0,55.1 599.8,54.7 601.6,54.4 603.3,54.2 605.1,54.0 606.9,53.9 608.7,54.2 610.5,53.9 612.2,53.8 614.0,53.5 615.8,53.1 617.6,53.4 619.4,53.1 621.1,53.1 622.9,53.1 624.7,53.0 626.5,52.9 628.3,52.4 630.0,52.4 631.8,52.4 633.6,52.7 635.4,52.8 637.2,53.2 638.9,53.3 640.7,53.4 642.5,53.5 644.3,53.7 646.1,53.7 647.8,54.1 649.6,54.4 651.4,54.7 653.2,54.8 654.9,55.1 656.7,55.4 658.5,55.5 660.3,55.7 662.1,56.2 663.8,56.1 665.6,56.3 667.4,56.6 669.2,56.7 671.0,56.8 672.7,57.2 674.5,57.2 676.3,57.1 678.1,57.3 679.9,57.2 681.6,57.3 683.4,57.2 685.2,57.0 687.0,57.1 688.8,57.0 690.5,56.8 692.3,56.6 694.1,56.4 695.9,56.4 697.7,56.2 699.4,55.9 701.2,55.9 703.0,55.7 704.8,55.4 706.6,55.3 708.3,54.8 710.1,54.8 711.9,54.8 713.7,54.3 715.5,54.4 717.2,54.0 719.0,54.1 720.8,54.3 722.6,54.3 724.4,53.9 726.1,54.0 727.9,54.2 729.7,53.9 731.5,54.2 733.3,54.2 735.0,54.3 736.8,54.7 738.6,54.8 740.4,55.2 742.2,55.4 743.9,55.2 745.7,55.7 747.5,55.6 749.3,55.8 751.1,56.1 752.8,56.1 754.6,56.0 756.4,56.2 758.2,56.3 760.0,56.2 761.7,56.2 763.5,55.8 765.3,55.7 767.1,55.6 768.9,55.5 770.6,55.2 772.4,55.0 774.2,54.8 776.0,54.3 777.8,53.9 779.5,53.7 781.3,53.1 783.1,52.9 784.9,52.2 786.7,51.8 788.4,51.5 790.2,51.2 792.0,51.0 793.8,51.3 795.6,51.0 797.3,50.6 799.1,51.1 800.9,50.8 802.7,50.5 804.4,50.8 806.2,51.0 808.0,50.8 809.8,51.9 811.6,51.7 813.3,51.7 815.1,52.2 816.9,52.4 818.7,53.1 820.5,53.5 822.2,53.6 824.0,53.7 825.8,54.1 827.6,54.7 829.4,54.7 831.1,55.1 832.9,55.3 834.7,55.3 836.5,55.5 838.3,55.3 840.0,55.3 841.8,55.6 843.6,55.4 845.4,55.0 847.2,55.1 848.9,54.8 850.7,55.0 852.5,54.5 854.3,54.5 856.1,54.3 857.8,54.1 859.6,53.8 861.4,53.7 863.2,53.0 865.0,53.0 866.7,53.0 868.5,52.7 870.3,52.4 872.1,52.7 873.9,52.9 875.6,52.5 877.4,52.2 879.2,52.8 881.0,53.0 882.8,52.7 884.5,52.6 886.3,53.2 888.1,52.9 889.9,53.3 891.7,53.9 893.4,53.9 895.2,54.3 897.0,54.4 898.8,54.6 900.6,54.7 902.3,55.0 904.1,55.3 905.9,55.6 907.7,55.8 909.5,56.1 911.2,56.4 913.0,56.6 914.8,56.6 916.6,56.6 918.4,56.8 920.1,57.0 921.9,57.0 923.7,57.1 925.5,57.3 927.3,57.1 929.0,57.2 930.8,57.2 932.6,57.1 934.4,57.1 936.2,57.1 937.9,57.0 939.7,56.8 941.5,56.8 943.3,56.8 945.1,56.6 946.8,56.5 948.6,56.2 950.4,56.0 952.2,56.0 953.9,55.7 955.7,55.4 957.5,55.6 959.3,55.1 961.1,55.1 962.8,55.1 964.6,54.7 966.4,54.9 968.2,54.5 970.0,54.6 971.7,54.2 973.5,54.0 975.3,54.2 977.1,53.8 978.9,54.0 980.6,53.7 982.4,53.8 984.2,53.7 986.0,53.3 987.8,53.5 989.5,53.3 991.3,53.2 993.1,53.3 994.9,53.4 996.7,53.7 998.4,53.6 1000.2,53.9 1002.0,53.6 1003.8,54.1 1005.6,53.9 1007.3,53.9 1009.1,54.3 1010.9,54.2 1012.7,54.1 1014.5,54.5 1016.2,54.7 1018.0,54.4 1019.8,54.8 1021.6,55.0 1023.4,55.1 1025.1,54.9 1026.9,55.2 1028.7,55.2 1030.5,55.3 1032.3,55.0 1034.0,55.1 1035.8,55.5 1037.6,55.3 1039.4,55.3 1041.2,55.4 1042.9,55.3 1044.7,55.7 1046.5,55.3 1048.3,55.6 1050.1,55.4 1051.8,55.5 1053.6,55.1 1055.4,55.5 1057.2,55.3 1059.0,54.8 1060.7,55.1 1062.5,55.0 1064.3,54.5 1066.1,54.7 1067.9,54.3 1069.6,54.3 1071.4,54.4 1073.2,54.0 1075.0,54.3 1076.8,54.0 1078.5,53.7 1080.3,53.7 1082.1,53.7 1083.9,53.4 1085.7,53.4 1087.4,53.2 1089.2,53.1 1091.0,52.5 1092.8,52.9 1094.5,52.9 1096.3,52.4 1098.1,52.4 1099.9,52.2 1101.7,52.8 1103.4,52.3 1105.2,52.6 1107.0,52.5 1108.8,52.6 1110.6,52.4 1112.3,51.9 1114.1,52.5 1115.9,52.0 1117.7,51.9 1119.5,52.0 1121.2,52.3 1123.0,52.9 1124.8,52.4 1126.6,52.4 1128.4,51.8 1130.1,52.3 1131.9,51.9 1133.7,51.7 1135.5,51.4 1137.3,51.4 1139.0,52.1 1140.8,51.7 1142.6,51.4 1144.4,51.8 1146.2,51.7 1147.9,51.6 1149.7,51.2 1151.5,51.5 1153.3,50.9 1155.1,51.1 1156.8,51.7 1158.6,51.4 1160.4,51.1 1162.2,51.1 1164.0,51.1 1165.7,51.4 1167.5,51.6 1169.3,51.7 1171.1,51.5 1172.9,51.9 1174.6,51.7 1176.4,51.8 1178.2,51.6 1180.0,52.1 1181.8,52.1 1183.5,52.4 1185.3,52.2 1187.1,52.0 1188.9,52.0 1190.7,52.2 1192.4,52.9 1194.2,52.6 1196.0,52.5 1197.8,52.5 1199.6,52.9 1201.3,53.2 1203.1,53.4 1204.9,53.4 1206.7,53.1 1208.5,53.0 1210.2,53.2 1212.0,53.6 1213.8,53.3 1215.6,53.6 1217.4,53.2 1219.1,53.4 1220.9,53.3 1222.7,53.6 1224.5,53.3 1226.3,53.7 1228.0,53.7 1229.8,53.8 1231.6,53.4 1233.4,53.1 1235.2,53.0 1236.9,53.3 1238.7,52.7 1240.5,52.9 1242.3,53.0 1244.0,52.3 1245.8,52.2 1247.6,52.5 1249.4,52.3 1251.2,51.8 1252.9,51.7 1254.7,51.3 1256.5,51.5 1258.3,50.7 1260.1,50.2 1261.8,49.9 1263.6,50.3 1265.4,49.2 1267.2,49.3 1269.0,48.9 1270.7,48.0 1272.5,47.9 1274.3,48.3 1276.1,48.1 1277.9,47.0 1279.6,47.2 1281.4,47.1 1283.2,45.7 1285.0,46.0 1286.8,45.9 1288.5,45.4 1290.3,45.5 1292.1,43.8 1293.9,44.1 1295.7,44.7 1297.4,43.9 1299.2,43.6 1301.0,43.0 1302.8,42.7 1304.6,43.0 1306.3,42.5 1308.1,42.5 1309.9,42.9 1311.7,42.8 1313.5,43.2 1315.2,42.9 1317.0,43.6 1318.8,43.4 1320.6,43.5 1322.4,44.0 1324.1,43.4 1325.9,43.6 1327.7,45.0 1329.5,44.8 1331.3,45.0 1333.0,45.7 1334.8,45.1 1336.6,46.3 1338.4,45.8 1340.2,46.2 1341.9,46.4 1343.7,46.9 1345.5,47.9 1347.3,47.6 1349.1,48.0 1350.8,48.9 1352.6,48.9 1354.4,49.8 1356.2,49.2 1358.0,50.1 1359.7,49.5 1361.5,50.2 1363.3,50.7 1365.1,50.1 1366.9,50.2 1368.6,50.8 1370.4,49.9 1372.2,50.3 1374.0,49.7 1375.8,50.3 1377.5,49.5 1379.3,48.8 1381.1,48.9 1382.9,49.0 1384.6,47.7 1386.4,47.5 1388.2,47.6 1390.0,47.0 1391.8,46.7 1393.5,46.3 1395.3,46.2 1397.1,45.8 1398.9,44.2 1400.7,44.9 1402.4,44.5 1404.2,43.9 1406.0,44.5 1407.8,42.9 1409.6,42.8 1411.3,43.9 1413.1,43.9 1414.9,43.8 1416.7,43.4 1418.5,44.0 1420.2,43.8 1422.0,43.8 1423.8,44.6 1425.6,45.1 1427.4,45.1 1429.1,46.7 1430.9,46.8 1432.7,47.2 1434.5,47.5 1436.3,48.2 1438.0,48.7 1439.8,49.1 1441.6,50.4 1443.4,50.5 1445.2,51.0 1446.9,51.6 1448.7,51.6 1450.5,52.1 1452.3,52.2 1454.1,52.9 1455.8,52.6 1457.6,52.9 1459.4,53.4 1461.2,53.0 1463.0,53.2 1464.7,53.3 1466.5,52.8 1468.3,52.4 1470.1,52.4 1471.9,52.0 1473.6,51.5 1475.4,51.4 1477.2,51.4 1479.0,50.7 1480.8,50.2 1482.5,49.8 1484.3,50.0 1486.1,50.1 1487.9,49.8 1489.7,49.6 1491.4,49.3 1493.2,49.0 1495.0,48.9 1496.8,48.6 1498.6,49.1 1500.3,48.8 1502.1,49.3 1503.9,49.3 1505.7,49.9 1507.5,50.3 1509.2,50.5 1511.0,50.2 1512.8,51.1 1514.6,51.0 1516.4,51.5 1518.1,52.4 1519.9,52.4 1521.7,53.3 1523.5,53.4 1525.3,53.8 1527.0,54.3 1528.8,54.6 1530.6,54.9 1532.4,55.3 1534.1,55.1 1535.9,55.5 1537.7,55.5 1539.5,55.7 1541.3,55.5 1543.0,55.7 1544.8,55.4 1546.6,55.7 1548.4,55.3 1550.2,55.5 1551.9,54.9 1553.7,54.7 1555.5,54.8 1557.3,54.3 1559.1,54.1 1560.8,54.3 1562.6,54.0 1564.4,54.1 1566.2,53.4 1568.0,53.6 1569.7,53.3 1571.5,53.6 1573.3,53.4 1575.1,53.9 1576.9,53.8 1578.6,54.0 1580.4,53.6 1582.2,54.2 1584.0,53.9 1585.8,54.4 1587.5,54.7 1589.3,55.0 1591.1,55.2 1592.9,55.3 1594.7,55.8 1596.4,56.1 1598.2,56.1 1600.0,56.6" fill="none" stroke="#62B6E8" stroke-width="1.4" opacity="0.9"/><polyline points="0.0,47.3 1.8,46.1 3.6,45.8 5.3,44.2 7.1,44.0 8.9,43.5 10.7,41.9 12.5,41.4 14.2,40.8 16.0,40.7 17.8,41.3 19.6,40.7 21.4,40.8 23.1,39.6 24.9,41.3 26.7,39.8 28.5,41.4 30.3,41.4 32.0,41.2 33.8,41.6 35.6,42.4 37.4,42.9 39.2,43.5 40.9,44.1 42.7,45.5 44.5,45.8 46.3,46.7 48.1,46.5 49.8,47.3 51.6,47.7 53.4,48.0 55.2,47.3 57.0,48.4 58.7,47.4 60.5,47.3 62.3,48.0 64.1,46.8 65.9,47.1 67.6,45.9 69.4,46.0 71.2,44.9 73.0,43.8 74.7,43.1 76.5,41.3 78.3,40.6 80.1,40.8 81.9,38.6 83.6,38.7 85.4,37.5 87.2,36.0 89.0,35.3 90.8,33.8 92.5,31.9 94.3,31.7 96.1,31.8 97.9,30.5 99.7,32.2 101.4,30.3 103.2,29.4 105.0,29.6 106.8,31.0 108.6,31.0 110.3,32.0 112.1,32.3 113.9,31.3 115.7,34.4 117.5,33.1 119.2,35.5 121.0,35.4 122.8,36.3 124.6,38.3 126.4,38.1 128.1,39.9 129.9,38.9 131.7,39.8 133.5,41.3 135.3,41.7 137.0,42.4 138.8,43.9 140.6,44.5 142.4,44.3 144.2,44.5 145.9,44.5 147.7,44.2 149.5,43.9 151.3,44.1 153.1,44.7 154.8,43.8 156.6,42.8 158.4,41.8 160.2,42.9 162.0,40.9 163.7,40.7 165.5,40.3 167.3,38.4 169.1,39.0 170.9,38.4 172.6,37.0 174.4,36.0 176.2,36.6 178.0,35.0 179.8,35.1 181.5,33.2 183.3,34.7 185.1,32.0 186.9,32.7 188.7,33.2 190.4,32.6 192.2,31.3 194.0,31.8 195.8,33.0 197.6,32.9 199.3,33.3 201.1,32.1 202.9,31.9 204.7,33.9 206.5,32.1 208.2,33.3 210.0,33.0 211.8,35.2 213.6,35.8 215.4,35.4 217.1,35.2 218.9,37.0 220.7,37.7 222.5,38.0 224.2,39.9 226.0,40.2 227.8,40.4 229.6,40.2 231.4,41.5 233.1,41.7 234.9,42.8 236.7,43.1 238.5,43.7 240.3,45.1 242.0,44.6 243.8,45.4 245.6,45.4 247.4,46.2 249.2,47.0 250.9,47.3 252.7,46.9 254.5,47.0 256.3,47.1 258.1,48.0 259.8,48.3 261.6,48.2 263.4,47.3 265.2,47.7 267.0,48.3 268.7,47.4 270.5,47.5 272.3,47.1 274.1,47.7 275.9,46.6 277.6,47.1 279.4,46.5 281.2,47.1 283.0,45.7 284.8,45.3 286.5,45.7 288.3,45.3 290.1,45.8 291.9,44.6 293.7,44.3 295.4,43.7 297.2,43.5 299.0,44.1 300.8,42.9 302.6,42.9 304.3,43.5 306.1,43.3 307.9,42.9 309.7,42.7 311.5,41.6 313.2,41.5 315.0,40.9 316.8,41.1 318.6,40.8 320.4,40.6 322.1,41.5 323.9,40.5 325.7,40.3 327.5,40.8 329.3,40.8 331.0,39.2 332.8,40.2 334.6,41.0 336.4,40.8 338.2,39.9 339.9,39.2 341.7,40.8 343.5,39.9 345.3,40.2 347.1,40.5 348.8,40.8 350.6,41.3 352.4,41.3 354.2,41.7 356.0,40.6 357.7,41.3 359.5,40.7 361.3,41.2 363.1,42.2 364.8,41.4 366.6,42.0 368.4,42.4 370.2,42.8 372.0,43.7 373.7,42.9 375.5,44.0 377.3,44.8 379.1,44.7 380.9,44.3 382.6,44.5 384.4,45.6 386.2,46.2 388.0,46.0 389.8,46.0 391.5,47.4 393.3,46.9 395.1,47.0 396.9,47.6 398.7,47.6 400.4,48.3 402.2,48.8 404.0,48.4 405.8,48.9 407.6,49.9 409.3,50.3 411.1,49.9 412.9,50.2 414.7,50.8 416.5,51.3 418.2,50.8 420.0,51.4 421.8,51.3 423.6,51.6 425.4,51.8 427.1,51.6 428.9,51.9 430.7,52.2 432.5,52.4 434.3,52.3 436.0,52.5 437.8,53.0 439.6,52.6 441.4,53.2 443.2,52.7 444.9,53.0 446.7,53.3 448.5,53.2 450.3,53.2 452.1,53.0 453.8,53.3 455.6,53.2 457.4,53.1 459.2,52.6 461.0,52.7 462.7,52.7 464.5,52.9 466.3,52.4 468.1,52.2 469.9,52.2 471.6,52.2 473.4,52.5 475.2,51.6 477.0,51.8 478.8,51.3 480.5,51.6 482.3,51.3 484.1,51.1 485.9,51.6 487.7,51.5 489.4,51.3 491.2,50.8 493.0,50.9 494.8,50.8 496.6,50.1 498.3,50.4 500.1,50.2 501.9,50.2 503.7,50.6 505.5,49.9 507.2,50.6 509.0,49.9 510.8,49.8 512.6,50.3 514.3,50.1 516.1,50.0 517.9,50.1 519.7,50.7 521.5,50.5 523.2,50.1 525.0,50.3 526.8,51.0 528.6,50.8 530.4,51.1 532.1,51.5 533.9,51.8 535.7,51.9 537.5,51.7 539.3,52.0 541.0,52.2 542.8,52.7 544.6,52.9 546.4,53.0 548.2,53.1 549.9,53.8 551.7,53.8 553.5,53.9 555.3,54.4 557.1,54.4 558.8,54.6 560.6,53.8 562.4,54.0 564.2,54.1 566.0,54.0 567.7,54.3 569.5,54.6 571.3,54.9 573.1,54.7 574.9,54.9 576.6,55.3 578.4,55.3 580.2,55.5 582.0,55.3 583.8,55.5 585.5,55.6 587.3,55.6 589.1,55.6 590.9,55.1 592.7,55.0 594.4,54.9 596.2,55.0 598.0,55.1 599.8,54.7 601.6,54.4 603.3,54.2 605.1,54.0 606.9,53.9 608.7,54.2 610.5,53.9 612.2,53.8 614.0,53.5 615.8,53.1 617.6,53.4 619.4,53.1 621.1,53.1 622.9,53.1 624.7,53.0 626.5,52.9 628.3,52.4 630.0,52.4 631.8,52.4 633.6,52.7 635.4,52.8 637.2,53.2 638.9,53.3 640.7,53.4 642.5,53.5 644.3,53.7 646.1,53.7 647.8,54.1 649.6,54.4 651.4,54.7 653.2,54.8 654.9,55.1 656.7,55.4 658.5,55.5 660.3,55.7 662.1,56.2 663.8,56.1 665.6,56.3 667.4,56.6 669.2,56.7 671.0,56.8 672.7,57.2 674.5,57.2 676.3,57.1 678.1,57.3 679.9,57.2 681.6,57.3 683.4,57.2 685.2,57.0 687.0,57.1 688.8,57.0 690.5,56.8 692.3,56.6 694.1,56.4 695.9,56.4 697.7,56.2 699.4,55.9 701.2,55.9 703.0,55.7 704.8,55.4 706.6,55.3 708.3,54.8 710.1,54.8 711.9,54.8 713.7,54.3 715.5,54.4 717.2,54.0 719.0,54.1 720.8,54.3 722.6,54.3 724.4,53.9 726.1,54.0 727.9,54.2 729.7,53.9 731.5,54.2 733.3,54.2 735.0,54.3 736.8,54.7 738.6,54.8 740.4,55.2 742.2,55.4 743.9,55.2 745.7,55.7 747.5,55.6 749.3,55.8 751.1,56.1 752.8,56.1 754.6,56.0 756.4,56.2 758.2,56.3 760.0,56.2 761.7,56.2 763.5,55.8 765.3,55.7 767.1,55.6 768.9,55.5 770.6,55.2 772.4,55.0 774.2,54.8 776.0,54.3 777.8,53.9 779.5,53.7 781.3,53.1 783.1,52.9 784.9,52.2 786.7,51.8 788.4,51.5 790.2,51.2 792.0,51.0 793.8,51.3 795.6,51.0 797.3,50.6 799.1,51.1 800.9,50.8 802.7,50.5 804.4,50.8 806.2,51.0 808.0,50.8 809.8,51.9 811.6,51.7 813.3,51.7 815.1,52.2 816.9,52.4 818.7,53.1 820.5,53.5 822.2,53.6 824.0,53.7 825.8,54.1 827.6,54.7 829.4,54.7 831.1,55.1 832.9,55.3 834.7,55.3 836.5,55.5 838.3,55.3 840.0,55.3 841.8,55.6 843.6,55.4 845.4,55.0 847.2,55.1 848.9,54.8 850.7,55.0 852.5,54.5 854.3,54.5 856.1,54.3 857.8,54.1 859.6,53.8 861.4,53.7 863.2,53.0 865.0,53.0 866.7,53.0 868.5,52.7 870.3,52.4 872.1,52.7 873.9,52.9 875.6,52.5 877.4,52.2 879.2,52.8 881.0,53.0 882.8,52.7 884.5,52.6 886.3,53.2 888.1,52.9 889.9,53.3 891.7,53.9 893.4,53.9 895.2,54.3 897.0,54.4 898.8,54.6 900.6,54.7 902.3,55.0 904.1,55.3 905.9,55.6 907.7,55.8 909.5,56.1 911.2,56.4 913.0,56.6 914.8,56.6 916.6,56.6 918.4,56.8 920.1,57.0 921.9,57.0 923.7,57.1 925.5,57.3 927.3,57.1 929.0,57.2 930.8,57.2 932.6,57.1 934.4,57.1 936.2,57.1 937.9,57.0 939.7,56.8 941.5,56.8 943.3,56.8 945.1,56.6 946.8,56.5 948.6,56.2 950.4,56.0 952.2,56.0 953.9,55.7 955.7,55.4 957.5,55.6 959.3,55.1 961.1,55.1 962.8,55.1 964.6,54.7 966.4,54.9 968.2,54.5 970.0,54.6 971.7,54.2 973.5,54.0 975.3,54.2 977.1,53.8 978.9,54.0 980.6,53.7 982.4,53.8 984.2,53.7 986.0,53.3 987.8,53.5 989.5,53.3 991.3,53.2 993.1,53.3 994.9,53.4 996.7,53.7 998.4,53.6 1000.2,53.9 1002.0,53.6 1003.8,54.1 1005.6,53.9 1007.3,53.9 1009.1,54.3 1010.9,54.2 1012.7,54.1 1014.5,54.5 1016.2,54.7 1018.0,54.4 1019.8,54.8 1021.6,55.0 1023.4,55.1 1025.1,54.9 1026.9,55.2 1028.7,55.2 1030.5,55.3 1032.3,55.0 1034.0,55.1 1035.8,55.5 1037.6,55.3 1039.4,55.3 1041.2,55.4 1042.9,55.3 1044.7,55.7 1046.5,55.3 1048.3,55.6 1050.1,55.4 1051.8,55.5 1053.6,55.1 1055.4,55.5 1057.2,55.3 1059.0,54.8 1060.7,55.1 1062.5,55.0 1064.3,54.5 1066.1,54.7 1067.9,54.3 1069.6,54.3 1071.4,54.4 1073.2,54.0 1075.0,54.3 1076.8,54.0 1078.5,53.7 1080.3,53.7 1082.1,53.7 1083.9,53.4 1085.7,53.4 1087.4,53.2 1089.2,53.1 1091.0,52.5 1092.8,52.9 1094.5,52.9 1096.3,52.4 1098.1,52.4 1099.9,52.2 1101.7,52.8 1103.4,52.3 1105.2,52.6 1107.0,52.5 1108.8,52.6 1110.6,52.4 1112.3,51.9 1114.1,52.5 1115.9,52.0 1117.7,51.9 1119.5,52.0 1121.2,52.3 1123.0,52.9 1124.8,52.4 1126.6,52.4 1128.4,51.8 1130.1,52.3 1131.9,51.9 1133.7,51.7 1135.5,51.4 1137.3,51.4 1139.0,52.1 1140.8,51.7 1142.6,51.4 1144.4,51.8 1146.2,51.7 1147.9,51.6 1149.7,51.2 1151.5,51.5 1153.3,50.9 1155.1,51.1 1156.8,51.7 1158.6,51.4 1160.4,51.1 1162.2,51.1 1164.0,51.1 1165.7,51.4 1167.5,51.6 1169.3,51.7 1171.1,51.5 1172.9,51.9 1174.6,51.7 1176.4,51.8 1178.2,51.6 1180.0,52.1 1181.8,52.1 1183.5,52.4 1185.3,52.2 1187.1,52.0 1188.9,52.0 1190.7,52.2 1192.4,52.9 1194.2,52.6 1196.0,52.5 1197.8,52.5 1199.6,52.9 1201.3,53.2 1203.1,53.4 1204.9,53.4 1206.7,53.1 1208.5,53.0 1210.2,53.2 1212.0,53.6 1213.8,53.3 1215.6,53.6 1217.4,53.2 1219.1,53.4 1220.9,53.3 1222.7,53.6 1224.5,53.3 1226.3,53.7 1228.0,53.7 1229.8,53.8 1231.6,53.4 1233.4,53.1 1235.2,53.0 1236.9,53.3 1238.7,52.7 1240.5,52.9 1242.3,53.0 1244.0,52.3 1245.8,52.2 1247.6,52.5 1249.4,52.3 1251.2,51.8 1252.9,51.7 1254.7,51.3 1256.5,51.5 1258.3,50.7 1260.1,50.2 1261.8,49.9 1263.6,50.3 1265.4,49.2 1267.2,49.3 1269.0,48.9 1270.7,48.0 1272.5,47.9 1274.3,48.3 1276.1,48.1 1277.9,47.0 1279.6,47.2 1281.4,47.1 1283.2,45.7 1285.0,46.0 1286.8,45.9 1288.5,45.4 1290.3,45.5 1292.1,43.8 1293.9,44.1 1295.7,44.7 1297.4,43.9 1299.2,43.6 1301.0,43.0 1302.8,42.7 1304.6,43.0 1306.3,42.5 1308.1,42.5 1309.9,42.9 1311.7,42.8 1313.5,43.2 1315.2,42.9 1317.0,43.6 1318.8,43.4 1320.6,43.5 1322.4,44.0 1324.1,43.4 1325.9,43.6 1327.7,45.0 1329.5,44.8 1331.3,45.0 1333.0,45.7 1334.8,45.1 1336.6,46.3 1338.4,45.8 1340.2,46.2 1341.9,46.4 1343.7,46.9 1345.5,47.9 1347.3,47.6 1349.1,48.0 1350.8,48.9 1352.6,48.9 1354.4,49.8 1356.2,49.2 1358.0,50.1 1359.7,49.5 1361.5,50.2 1363.3,50.7 1365.1,50.1 1366.9,50.2 1368.6,50.8 1370.4,49.9 1372.2,50.3 1374.0,49.7 1375.8,50.3 1377.5,49.5 1379.3,48.8 1381.1,48.9 1382.9,49.0 1384.6,47.7 1386.4,47.5 1388.2,47.6 1390.0,47.0 1391.8,46.7 1393.5,46.3 1395.3,46.2 1397.1,45.8 1398.9,44.2 1400.7,44.9 1402.4,44.5 1404.2,43.9 1406.0,44.5 1407.8,42.9 1409.6,42.8 1411.3,43.9 1413.1,43.9 1414.9,43.8 1416.7,43.4 1418.5,44.0 1420.2,43.8 1422.0,43.8 1423.8,44.6 1425.6,45.1 1427.4,45.1 1429.1,46.7 1430.9,46.8 1432.7,47.2 1434.5,47.5 1436.3,48.2 1438.0,48.7 1439.8,49.1 1441.6,50.4 1443.4,50.5 1445.2,51.0 1446.9,51.6 1448.7,51.6 1450.5,52.1 1452.3,52.2 1454.1,52.9 1455.8,52.6 1457.6,52.9 1459.4,53.4 1461.2,53.0 1463.0,53.2 1464.7,53.3 1466.5,52.8 1468.3,52.4 1470.1,52.4 1471.9,52.0 1473.6,51.5 1475.4,51.4 1477.2,51.4 1479.0,50.7 1480.8,50.2 1482.5,49.8 1484.3,50.0 1486.1,50.1 1487.9,49.8 1489.7,49.6 1491.4,49.3 1493.2,49.0 1495.0,48.9 1496.8,48.6 1498.6,49.1 1500.3,48.8 1502.1,49.3 1503.9,49.3 1505.7,49.9 1507.5,50.3 1509.2,50.5 1511.0,50.2 1512.8,51.1 1514.6,51.0 1516.4,51.5 1518.1,52.4 1519.9,52.4 1521.7,53.3 1523.5,53.4 1525.3,53.8 1527.0,54.3 1528.8,54.6 1530.6,54.9 1532.4,55.3 1534.1,55.1 1535.9,55.5 1537.7,55.5 1539.5,55.7 1541.3,55.5 1543.0,55.7 1544.8,55.4 1546.6,55.7 1548.4,55.3 1550.2,55.5 1551.9,54.9 1553.7,54.7 1555.5,54.8 1557.3,54.3 1559.1,54.1 1560.8,54.3 1562.6,54.0 1564.4,54.1 1566.2,53.4 1568.0,53.6 1569.7,53.3 1571.5,53.6 1573.3,53.4 1575.1,53.9 1576.9,53.8 1578.6,54.0 1580.4,53.6 1582.2,54.2 1584.0,53.9 1585.8,54.4 1587.5,54.7 1589.3,55.0 1591.1,55.2 1592.9,55.3 1594.7,55.8 1596.4,56.1 1598.2,56.1 1600.0,56.6" fill="none" stroke="#62B6E8" stroke-width="5" opacity="0.12"/></svg>